<?xml version="1.0" encoding="UTF-8"?>
<!DOCTYPE svg PUBLIC "-//W3C//DTD SVG 1.1//EN" "http://www.w3.org/Graphics/SVG/1.1/DTD/svg11.dtd">
<svg xmlns="http://www.w3.org/2000/svg" version="1.1" width="1024px" height="1024px" style="shape-rendering:geometricPrecision; text-rendering:geometricPrecision; image-rendering:optimizeQuality; fill-rule:evenodd; clip-rule:evenodd" xmlns:xlink="http://www.w3.org/1999/xlink">
<g><path style="opacity:0.004" fill="#586748" d="M 259.5,141.5 C 260.833,142.167 260.833,142.167 259.5,141.5 Z"/></g>
<g><path style="opacity:0.998" fill="#acc986" d="M 859.5,140.5 C 862.074,150.531 863.407,160.865 863.5,171.5C 862.282,165.363 861.448,159.029 861,152.5C 860.833,154.5 860.667,156.5 860.5,158.5C 861.954,187.642 862.954,216.642 863.5,245.5C 863.818,250.032 863.485,254.366 862.5,258.5C 862.665,254.818 862.499,251.152 862,247.5C 860.7,257.195 859.7,266.861 859,276.5C 859.934,275.142 860.768,273.808 861.5,272.5C 861.283,276.705 860.617,280.705 859.5,284.5C 859.66,282.801 859.494,281.134 859,279.5C 857.672,285.879 856.505,292.379 855.5,299C 855.667,300.167 855.833,301.333 856,302.5C 856.21,300.942 856.71,299.609 857.5,298.5C 856.314,305.047 855.314,311.381 854.5,317.5C 851.107,330.346 847.107,343.012 842.5,355.5C 842.607,353.621 842.107,353.288 841,354.5C 840.392,356.154 839.892,357.821 839.5,359.5C 835.799,367.252 832.299,375.252 829,383.5C 827.527,383.132 826.027,383.632 824.5,385C 824.957,385.414 825.291,385.914 825.5,386.5C 824.061,390.788 822.728,395.121 821.5,399.5C 819.93,399.694 818.43,399.694 817,399.5C 815.007,401.406 815.507,402.573 818.5,403C 814.336,411.822 809.502,420.322 804,428.5C 801.786,431.715 798.952,434.215 795.5,436C 795.957,436.414 796.291,436.914 796.5,437.5C 791.598,444.907 785.765,451.574 779,457.5C 778.472,458.816 778.972,459.483 780.5,459.5C 777.167,462.833 773.833,466.167 770.5,469.5C 770.304,467.354 769.304,467.188 767.5,469C 760.084,476.42 752.084,483.087 743.5,489C 744.094,489.464 744.761,489.631 745.5,489.5C 744.738,491.262 743.404,492.262 741.5,492.5C 741.611,491.883 741.944,491.383 742.5,491C 740.956,489.813 739.289,489.48 737.5,490C 737.833,490.333 738.167,490.667 738.5,491C 731.155,497.338 723.155,502.671 714.5,507C 715.448,507.483 716.448,507.649 717.5,507.5C 711.5,510.833 705.5,514.167 699.5,517.5C 691.753,520.028 684.087,522.861 676.5,526C 677.448,526.483 678.448,526.649 679.5,526.5C 677.831,527.66 675.997,527.66 674,526.5C 664.696,529.701 655.196,532.034 645.5,533.5C 644.207,532.842 642.707,532.508 641,532.5C 631.712,533.787 622.546,535.287 613.5,537C 614.448,537.483 615.448,537.649 616.5,537.5C 615.282,538.161 613.949,538.828 612.5,539.5C 610.346,543.994 608.012,548.327 605.5,552.5C 605.19,551.262 604.69,551.262 604,552.5C 599.562,561.71 595.395,571.044 591.5,580.5C 591.957,581.298 592.624,581.631 593.5,581.5C 592.302,584.426 591.302,587.426 590.5,590.5C 588.935,592.509 587.935,594.843 587.5,597.5C 585.5,601.833 583.5,606.167 581.5,610.5C 581.649,609.448 581.483,608.448 581,607.5C 579.682,610.801 577.848,613.801 575.5,616.5C 576.634,619.946 575.801,622.946 573,625.5C 568.667,638.167 564.333,650.833 560,663.5C 559.333,665.167 559.333,666.833 560,668.5C 560.383,667.944 560.883,667.611 561.5,667.5C 561.204,669.403 560.537,671.07 559.5,672.5C 559.649,671.448 559.483,670.448 559,669.5C 554.415,679.853 551.415,690.52 550,701.5C 550.278,700.584 550.778,699.918 551.5,699.5C 551.405,701.786 550.738,703.786 549.5,705.5C 549.631,704.624 549.298,703.957 548.5,703.5C 545.988,709.191 544.322,715.191 543.5,721.5C 543.52,722.726 543.853,723.726 544.5,724.5C 541.071,740 537.404,755.334 533.5,770.5C 532.726,766.556 532.059,766.723 531.5,771C 529.955,780.199 528.288,789.365 526.5,798.5C 523.601,813.751 521.101,829.085 519,844.5C 518.185,849.352 518.352,854.019 519.5,858.5C 519.147,867.381 518.147,876.048 516.5,884.5C 516.485,872.563 515.819,872.563 514.5,884.5C 514.667,885.5 514.833,886.5 515,887.5C 515.278,886.584 515.778,885.918 516.5,885.5C 515.935,891.963 513.269,897.296 508.5,901.5C 508.631,900.761 508.464,900.094 508,899.5C 502.74,903.795 496.74,905.461 490,904.5C 483.933,904.416 478.1,903.249 472.5,901C 471.075,899.638 470.242,898.138 470,896.5C 469.667,897.167 469.333,897.833 469,898.5C 465.199,892.788 463.532,886.455 464,879.5C 463.501,883.821 463.334,888.154 463.5,892.5C 462.17,885.443 462.504,878.443 464.5,871.5C 464.337,873.857 464.503,876.19 465,878.5C 466.82,871.942 467.487,865.275 467,858.5C 466.892,862.465 466.059,866.132 464.5,869.5C 465.051,862.964 466.051,856.631 467.5,850.5C 467.337,852.857 467.503,855.19 468,857.5C 469.698,846.037 469.865,834.704 468.5,823.5C 468.55,818.448 468.05,813.448 467,808.5C 466.503,811.146 466.336,813.813 466.5,816.5C 465.383,812.705 464.717,808.705 464.5,804.5C 465.586,804.38 466.253,803.713 466.5,802.5C 465.486,798.775 464.319,795.108 463,791.5C 462.51,792.793 462.343,794.127 462.5,795.5C 461.897,793.81 460.897,792.31 459.5,791C 460.337,789.989 460.67,788.822 460.5,787.5C 461.222,787.918 461.722,788.584 462,789.5C 462.068,783.506 460.734,777.839 458,772.5C 457.51,773.793 457.343,775.127 457.5,776.5C 453.256,762.77 448.589,749.103 443.5,735.5C 444.895,737.054 445.561,736.721 445.5,734.5C 445.163,730.567 443.663,727.233 441,724.5C 436.245,711.897 430.912,699.563 425,687.5C 424.283,688.044 423.783,688.711 423.5,689.5C 417.6,685.652 411.1,684.652 404,686.5C 403.5,686.333 403,686.167 402.5,686C 403.416,685.722 404.082,685.222 404.5,684.5C 408.182,684.665 411.848,684.499 415.5,684C 403.908,682.725 392.408,680.892 381,678.5C 380.167,678.667 379.333,678.833 378.5,679C 379.416,679.278 380.082,679.778 380.5,680.5C 378.214,680.405 376.214,679.738 374.5,678.5C 375.552,678.649 376.552,678.483 377.5,678C 373.032,676.011 368.366,674.511 363.5,673.5C 362.537,673.97 362.537,674.637 363.5,675.5C 361.847,675.34 360.514,674.674 359.5,673.5C 361.379,673.607 361.712,673.107 360.5,672C 354.264,669.883 348.264,667.216 342.5,664C 341.251,663.26 340.251,663.427 339.5,664.5C 336.167,662.833 332.833,661.167 329.5,659.5C 325.857,656.865 322.19,654.199 318.5,651.5C 310.804,644.805 303.804,637.472 297.5,629.5C 298.239,629.631 298.906,629.464 299.5,629C 290.808,619.77 283.475,609.604 277.5,598.5C 276.743,597.227 276.077,597.227 275.5,598.5C 274.094,598.027 273.427,597.027 273.5,595.5C 274.363,596.463 275.03,596.463 275.5,595.5C 270.274,584.96 264.774,574.627 259,564.5C 258.536,565.094 258.369,565.761 258.5,566.5C 257.326,565.486 256.66,564.153 256.5,562.5C 258.353,563.614 258.853,562.948 258,560.5C 249.166,541.167 239.5,522.167 229,503.5C 228.536,504.094 228.369,504.761 228.5,505.5C 227.512,504.205 226.512,502.872 225.5,501.5C 226.376,501.631 227.043,501.298 227.5,500.5C 221.66,489.48 214.827,479.147 207,469.5C 205.872,467.655 205.372,465.655 205.5,463.5C 204.448,463.649 203.448,463.483 202.5,463C 200.545,460.674 198.545,458.341 196.5,456C 195.563,455.308 194.897,455.475 194.5,456.5C 192.66,454.832 190.66,453.332 188.5,452C 192.796,450.419 197.129,449.252 201.5,448.5C 203.5,448.5 205.5,448.5 207.5,448.5C 204.097,449.925 200.43,450.758 196.5,451C 205.531,451.053 214.531,450.387 223.5,449C 219.848,448.501 216.182,448.335 212.5,448.5C 217.975,447.511 223.642,447.178 229.5,447.5C 245.69,448.255 262.024,449.255 278.5,450.5C 280.833,450.333 283.167,450.167 285.5,450C 283.942,449.79 282.609,449.29 281.5,448.5C 283.144,448.714 284.644,448.38 286,447.5C 289.466,448.941 292.966,449.941 296.5,450.5C 294.143,450.337 291.81,450.503 289.5,451C 293.779,452.244 298.112,452.577 302.5,452C 300.618,451.802 298.952,451.302 297.5,450.5C 310.573,451.78 323.24,454.447 335.5,458.5C 334.127,458.343 332.793,458.51 331.5,459C 341.907,461.972 352.074,465.472 362,469.5C 363.684,469.317 363.85,468.65 362.5,467.5C 365.485,468.326 368.151,469.659 370.5,471.5C 369.448,471.351 368.448,471.517 367.5,472C 383.083,479.253 397.416,487.587 410.5,497C 416.917,501.873 422.917,507.207 428.5,513C 429.816,513.528 430.483,513.028 430.5,511.5C 434.203,515.202 437.537,519.202 440.5,523.5C 439.427,524.251 439.26,525.251 440,526.5C 448.426,535.947 455.759,546.28 462,557.5C 462.464,556.906 462.631,556.239 462.5,555.5C 463.401,556.29 464.068,557.29 464.5,558.5C 463.761,558.369 463.094,558.536 462.5,559C 463.603,562.039 465.103,564.873 467,567.5C 467.464,566.906 467.631,566.239 467.5,565.5C 468.674,566.514 469.34,567.847 469.5,569.5C 468.637,568.537 467.97,568.537 467.5,569.5C 471.133,578.381 474.299,587.381 477,596.5C 477.49,595.207 477.657,593.873 477.5,592.5C 477.833,592.5 478.167,592.5 478.5,592.5C 478.674,594.861 479.007,597.194 479.5,599.5C 478.844,600.622 478.511,601.955 478.5,603.5C 479.415,610.49 480.249,617.49 481,624.5C 481.499,620.514 481.666,616.514 481.5,612.5C 482.198,615.897 482.865,619.397 483.5,623C 483.344,629.553 482.677,636.053 481.5,642.5C 481.665,638.818 481.499,635.152 481,631.5C 479.775,640.19 478.775,648.857 478,657.5C 478.278,656.584 478.778,655.918 479.5,655.5C 478.637,660.616 477.304,665.616 475.5,670.5C 474.817,670.137 474.15,669.804 473.5,669.5C 470.046,661.259 466.046,653.259 461.5,645.5C 462.239,645.631 462.906,645.464 463.5,645C 459.791,639.081 455.958,633.248 452,627.5C 451.536,628.094 451.369,628.761 451.5,629.5C 450.094,629.027 449.427,628.027 449.5,626.5C 450.525,626.103 450.692,625.437 450,624.5C 443.565,615.232 436.565,606.565 429,598.5C 428.536,599.094 428.369,599.761 428.5,600.5C 427.167,599.833 426.167,598.833 425.5,597.5C 426.239,597.631 426.906,597.464 427.5,597C 418.284,586.451 408.451,576.618 398,567.5C 396.97,567.836 396.47,568.503 396.5,569.5C 395.833,569.167 395.167,568.833 394.5,568.5C 390.833,565.167 387.167,561.833 383.5,558.5C 383.938,558.565 384.272,558.399 384.5,558C 377.848,552.673 370.848,547.84 363.5,543.5C 362.537,543.97 362.537,544.637 363.5,545.5C 362.833,545.5 362.167,545.5 361.5,545.5C 359.747,543.601 357.747,542.935 355.5,543.5C 354.205,542.902 352.872,542.402 351.5,542C 353.929,541.549 354.096,540.715 352,539.5C 350.16,540.833 349.66,540.666 350.5,539C 346.347,536.673 342.013,534.84 337.5,533.5C 337.5,533.167 337.5,532.833 337.5,532.5C 339.379,532.607 339.712,532.107 338.5,531C 329.834,526.886 320.834,524.219 311.5,523C 312.416,523.278 313.082,523.778 313.5,524.5C 310.833,524.833 310.833,525.167 313.5,525.5C 317.689,528.427 322.023,531.093 326.5,533.5C 326.196,534.15 325.863,534.817 325.5,535.5C 336.71,541.869 347.544,548.869 358,556.5C 358.464,555.906 358.631,555.239 358.5,554.5C 359.391,555.11 360.391,555.443 361.5,555.5C 361.833,556.5 362.5,557.167 363.5,557.5C 368.476,561.47 373.476,565.47 378.5,569.5C 384.806,575.14 390.806,581.14 396.5,587.5C 395.475,587.897 395.308,588.563 396,589.5C 417.1,610.421 434.933,633.754 449.5,659.5C 450.257,660.773 450.923,660.773 451.5,659.5C 452.338,659.842 452.672,660.508 452.5,661.5C 451.427,662.251 451.26,663.251 452,664.5C 455.03,669.226 457.53,674.226 459.5,679.5C 461.667,683.167 463.833,686.833 466,690.5C 466.464,689.906 466.631,689.239 466.5,688.5C 467.674,689.514 468.34,690.847 468.5,692.5C 466.647,691.386 466.147,692.052 467,694.5C 472.748,706.384 477.748,718.717 482,731.5C 482.483,730.552 482.649,729.552 482.5,728.5C 484.737,734.029 486.903,739.695 489,745.5C 492.567,732.973 496.4,720.64 500.5,708.5C 500.302,710.575 500.135,712.575 500,714.5C 502.035,709.396 503.868,704.229 505.5,699C 505.333,698.167 505.167,697.333 505,696.5C 504.768,697.737 504.268,698.737 503.5,699.5C 503.69,696.145 504.69,693.145 506.5,690.5C 507.248,692.735 508.081,692.402 509,689.5C 511.976,681.591 514.643,673.591 517,665.5C 521.313,653.935 525.479,642.269 529.5,630.5C 529.03,629.537 528.363,629.537 527.5,630.5C 528.264,627.982 529.264,625.649 530.5,623.5C 531.092,626.083 531.758,626.083 532.5,623.5C 533.969,620.06 535.302,616.56 536.5,613C 536.43,612.235 536.097,611.735 535.5,611.5C 536.167,608.833 536.833,606.167 537.5,603.5C 540.833,596.167 544.167,588.833 547.5,581.5C 547.369,582.239 547.536,582.906 548,583.5C 550.65,580.085 552.484,576.251 553.5,572C 552.906,571.536 552.239,571.369 551.5,571.5C 552.171,570.153 552.171,568.986 551.5,568C 553.056,567.28 554.056,566.113 554.5,564.5C 555.338,564.158 555.672,563.492 555.5,562.5C 555.833,561.167 556.167,559.833 556.5,558.5C 556.833,558.5 557.167,558.5 557.5,558.5C 557.775,560.842 558.608,560.842 560,558.5C 562.834,551.827 565.667,545.161 568.5,538.5C 568.03,537.537 567.363,537.537 566.5,538.5C 567.659,534.849 569.326,531.515 571.5,528.5C 571.393,530.379 571.893,530.712 573,529.5C 587.214,498 603.88,468 623,439.5C 623.74,438.251 623.573,437.251 622.5,436.5C 622.935,433.459 624.435,431.126 627,429.5C 628.699,426.079 630.865,423.079 633.5,420.5C 633.775,422.842 634.608,422.842 636,420.5C 640.5,414 645,407.5 649.5,401C 648.906,400.536 648.239,400.369 647.5,400.5C 647.833,399.5 648.5,398.833 649.5,398.5C 649.56,399.043 649.893,399.376 650.5,399.5C 651.815,397.684 653.315,396.017 655,394.5C 655.605,392.365 655.105,392.031 653.5,393.5C 654.806,391.184 656.139,388.85 657.5,386.5C 659.262,385.738 660.262,384.404 660.5,382.5C 661.167,382.167 661.833,381.833 662.5,381.5C 662.775,383.842 663.608,383.842 665,381.5C 676.153,367.35 687.653,353.517 699.5,340C 698.906,339.536 698.239,339.369 697.5,339.5C 698.167,338.167 699.167,337.167 700.5,336.5C 700.369,337.239 700.536,337.906 701,338.5C 703.872,335.963 706.372,333.13 708.5,330C 707.906,329.536 707.239,329.369 706.5,329.5C 707.167,328.167 708.167,327.167 709.5,326.5C 709.369,327.239 709.536,327.906 710,328.5C 714.202,324.633 718.035,320.467 721.5,316C 720.906,315.536 720.239,315.369 719.5,315.5C 720.167,314.5 720.833,313.5 721.5,312.5C 721.833,312.5 722.167,312.5 722.5,312.5C 722.369,313.239 722.536,313.906 723,314.5C 727.368,310.467 731.368,306.134 735,301.5C 735.423,302.956 736.256,303.456 737.5,303C 736.465,301.493 736.632,299.993 738,298.5C 740.436,296.533 742.936,294.866 745.5,293.5C 745.351,292.448 745.517,291.448 746,290.5C 749.862,285.976 754.362,282.142 759.5,279C 758.072,278.421 756.738,278.588 755.5,279.5C 755.167,278.167 754.833,278.167 754.5,279.5C 753.833,279.5 753.5,279.833 753.5,280.5C 750.296,281.383 747.629,283.05 745.5,285.5C 743.566,286.11 741.899,287.11 740.5,288.5C 737.527,290.147 734.86,292.147 732.5,294.5C 731.5,295.167 730.5,295.833 729.5,296.5C 729.631,295.624 729.298,294.957 728.5,294.5C 727.126,295.711 725.626,296.711 724,297.5C 721.418,296.254 720.585,296.921 721.5,299.5C 718.391,301.914 715.391,304.414 712.5,307C 713.094,307.464 713.761,307.631 714.5,307.5C 713.027,309.395 711.36,311.061 709.5,312.5C 708.833,312.5 708.5,312.833 708.5,313.5C 707.833,313.5 707.5,313.833 707.5,314.5C 705.251,315.08 703.585,316.413 702.5,318.5C 701.609,319.11 700.609,319.443 699.5,319.5C 699.565,319.062 699.399,318.728 699,318.5C 698.25,319.126 697.416,319.626 696.5,320C 689.805,325.697 683.471,331.697 677.5,338C 678.094,338.464 678.761,338.631 679.5,338.5C 678.833,339.833 677.833,340.833 676.5,341.5C 676.304,339.354 675.304,339.188 673.5,341C 669.04,345.295 664.706,349.795 660.5,354.5C 660.97,355.463 661.637,355.463 662.5,354.5C 661.92,356.749 660.587,358.415 658.5,359.5C 658.631,358.624 658.298,357.957 657.5,357.5C 651.511,363.657 645.677,369.991 640,376.5C 639.472,377.816 639.972,378.483 641.5,378.5C 640.5,379.833 639.5,381.167 638.5,382.5C 637.272,383.306 636.272,384.306 635.5,385.5C 635.649,384.448 635.483,383.448 635,382.5C 631.715,387.454 628.048,392.12 624,396.5C 623.308,397.437 623.475,398.103 624.5,398.5C 624.573,400.027 623.906,401.027 622.5,401.5C 622.631,400.761 622.464,400.094 622,399.5C 617.891,403.61 614.557,408.277 612,413.5C 606.444,420.769 600.944,428.769 595.5,437.5C 595.97,438.463 596.637,438.463 597.5,437.5C 596.89,439.434 595.89,441.101 594.5,442.5C 594.631,441.761 594.464,441.094 594,440.5C 590.18,446.801 586.346,453.134 582.5,459.5C 582.957,460.298 583.624,460.631 584.5,460.5C 584.068,461.71 583.401,462.71 582.5,463.5C 582.631,462.761 582.464,462.094 582,461.5C 578.793,466.449 575.959,471.615 573.5,477C 573.57,477.765 573.903,478.265 574.5,478.5C 574.672,479.492 574.338,480.158 573.5,480.5C 572.923,479.227 572.257,479.227 571.5,480.5C 570.113,484.088 568.446,486.754 566.5,488.5C 565.857,486.924 564.857,485.59 563.5,484.5C 563.5,483.5 563.5,482.5 563.5,481.5C 564.222,481.918 564.722,482.584 565,483.5C 565.167,483 565.333,482.5 565.5,482C 562.134,474.702 559.3,467.202 557,459.5C 556.517,460.448 556.351,461.448 556.5,462.5C 554.409,457.809 553.076,452.809 552.5,447.5C 553.222,447.918 553.722,448.584 554,449.5C 554.167,448.5 554.333,447.5 554.5,446.5C 552.954,440.973 552.121,435.306 552,429.5C 552.067,415.329 551.901,401.329 551.5,387.5C 551.93,379.131 553.597,371.131 556.5,363.5C 556.343,364.873 556.51,366.207 557,367.5C 559.521,361.289 561.188,354.956 562,348.5C 561.617,349.056 561.117,349.389 560.5,349.5C 562.267,343.515 564.6,337.848 567.5,332.5C 567.684,334.925 568.351,334.925 569.5,332.5C 578.794,313.409 590.461,295.909 604.5,280C 604.272,279.601 603.938,279.435 603.5,279.5C 604.5,276.5 606.5,274.5 609.5,273.5C 609.897,274.525 610.563,274.692 611.5,274C 620.93,264.791 631.263,256.791 642.5,250C 643.696,249.346 643.696,248.846 642.5,248.5C 641.583,249.127 640.583,249.461 639.5,249.5C 648.174,243.159 657.507,237.825 667.5,233.5C 666.537,234.363 666.537,235.03 667.5,235.5C 672.763,233.443 677.763,230.943 682.5,228C 681.906,227.536 681.239,227.369 680.5,227.5C 681.514,226.326 682.847,225.66 684.5,225.5C 683.537,226.363 683.537,227.03 684.5,227.5C 691.313,224.925 697.979,222.091 704.5,219C 703.552,218.517 702.552,218.351 701.5,218.5C 702.5,217.833 703.5,217.167 704.5,216.5C 705.167,216.5 705.833,216.5 706.5,216.5C 705.537,217.363 705.537,218.03 706.5,218.5C 714.941,215.022 723.274,211.355 731.5,207.5C 731.043,206.702 730.376,206.369 729.5,206.5C 736.527,202.656 743.86,199.323 751.5,196.5C 750.537,197.363 750.537,198.03 751.5,198.5C 755.575,197.406 759.242,195.572 762.5,193C 761.906,192.536 761.239,192.369 760.5,192.5C 767.128,189.186 773.795,185.853 780.5,182.5C 779.537,183.363 779.537,184.03 780.5,184.5C 786.792,181.57 793.125,178.736 799.5,176C 800.5,175 801.5,174 802.5,173C 801.906,172.536 801.239,172.369 800.5,172.5C 801.833,171.5 803.167,170.5 804.5,169.5C 807.352,167.909 810.352,166.576 813.5,165.5C 812.537,166.363 812.537,167.03 813.5,167.5C 822.161,163.172 830.494,158.338 838.5,153C 837.906,152.536 837.239,152.369 836.5,152.5C 839.598,150.108 842.931,147.942 846.5,146C 850.326,143.799 854.492,141.299 859,138.5C 860.684,138.683 860.85,139.35 859.5,140.5 Z M 753.5,280.5 C 751.486,282.845 749.153,284.845 746.5,286.5C 746.5,285.833 746.167,285.5 745.5,285.5C 747.629,283.05 750.296,281.383 753.5,280.5 Z M 745.5,285.5 C 746.167,285.5 746.5,285.833 746.5,286.5C 745.438,289.378 743.438,291.378 740.5,292.5C 741.354,290.965 741.354,289.632 740.5,288.5C 741.899,287.11 743.566,286.11 745.5,285.5 Z"/></g>
<g><path style="opacity:0.008" fill="#a9c386" d="M 841.5,146.5 C 842.833,147.167 842.833,147.167 841.5,146.5 Z"/></g>
<g><path style="opacity:0.988" fill="#a8c474" d="M 859.5,140.5 C 860.112,144.163 860.279,147.83 860,151.5C 859.587,148.768 858.92,146.101 858,143.5C 856.992,143.018 855.825,142.852 854.5,143C 855.91,141.628 857.577,140.795 859.5,140.5 Z"/></g>
<g><path style="opacity:0.004" fill="#a7c486" d="M 831.5,151.5 C 832.833,152.167 832.833,152.167 831.5,151.5 Z"/></g>
<g><path style="opacity:0.994" fill="#aac478" d="M 836.5,152.5 C 837.239,152.369 837.906,152.536 838.5,153C 830.494,158.338 822.161,163.172 813.5,167.5C 812.537,167.03 812.537,166.363 813.5,165.5C 820.997,160.917 828.663,156.584 836.5,152.5 Z"/></g>
<g><path style="opacity:0.012" fill="#aac686" d="M 804.5,167.5 C 805.833,168.167 805.833,168.167 804.5,167.5 Z"/></g>
<g><path style="opacity:0.004" fill="#abc586" d="M 804.5,168.5 C 804.5,168.833 804.5,169.167 804.5,169.5C 803.83,169.019 803.83,168.685 804.5,168.5 Z"/></g>
<g><path style="opacity:0.008" fill="#acc789" d="M 790.5,176.5 C 789.833,175.167 789.833,175.167 790.5,176.5 Z"/></g>
<g><path style="opacity:0.973" fill="#a9c477" d="M 800.5,172.5 C 801.239,172.369 801.906,172.536 802.5,173C 801.5,174 800.5,175 799.5,176C 793.125,178.736 786.792,181.57 780.5,184.5C 779.537,184.03 779.537,183.363 780.5,182.5C 784.201,180.988 787.534,178.988 790.5,176.5C 793.833,175.167 797.167,173.833 800.5,172.5 Z"/></g>
<g><path style="opacity:0.004" fill="#acc687" d="M 756.5,191.5 C 757.833,192.167 757.833,192.167 756.5,191.5 Z"/></g>
<g><path style="opacity:0.004" fill="#adc888" d="M 752.5,193.5 C 753.833,194.167 753.833,194.167 752.5,193.5 Z"/></g>
<g><path style="opacity:0.992" fill="#aac478" d="M 760.5,192.5 C 761.239,192.369 761.906,192.536 762.5,193C 759.242,195.572 755.575,197.406 751.5,198.5C 750.537,198.03 750.537,197.363 751.5,196.5C 754.314,194.93 757.314,193.597 760.5,192.5 Z"/></g>
<g><path style="opacity:1" fill="#abc478" d="M 863.5,171.5 C 864.804,196.19 864.804,220.856 863.5,245.5C 862.954,216.642 861.954,187.642 860.5,158.5C 860.667,156.5 860.833,154.5 861,152.5C 861.448,159.029 862.282,165.363 863.5,171.5 Z"/></g>
<g><path style="opacity:0.008" fill="#afca8d" d="M 722.5,208.5 C 721.761,208.631 721.094,208.464 720.5,208C 721.437,207.308 722.103,207.475 722.5,208.5 Z"/></g>
<g><path style="opacity:0.976" fill="#abc67b" d="M 729.5,206.5 C 730.376,206.369 731.043,206.702 731.5,207.5C 723.274,211.355 714.941,215.022 706.5,218.5C 705.537,218.03 705.537,217.363 706.5,216.5C 712.081,214.376 717.414,211.71 722.5,208.5C 724.921,208.122 727.254,207.455 729.5,206.5 Z"/></g>
<g><path style="opacity:0.008" fill="#aec689" d="M 704.5,216.5 C 703.833,215.167 703.833,215.167 704.5,216.5 Z"/></g>
<g><path style="opacity:0.008" fill="#aac789" d="M 682.5,223.5 C 683.833,224.167 683.833,224.167 682.5,223.5 Z"/></g>
<g><path style="opacity:0.996" fill="#aac57b" d="M 701.5,218.5 C 702.552,218.351 703.552,218.517 704.5,219C 697.979,222.091 691.313,224.925 684.5,227.5C 683.537,227.03 683.537,226.363 684.5,225.5C 690.048,222.893 695.715,220.56 701.5,218.5 Z"/></g>
<g><path style="opacity:0.004" fill="#abc687" d="M 667.5,232.5 C 666.833,231.167 666.833,231.167 667.5,232.5 Z"/></g>
<g><path style="opacity:0.992" fill="#abc57b" d="M 680.5,227.5 C 681.239,227.369 681.906,227.536 682.5,228C 677.763,230.943 672.763,233.443 667.5,235.5C 666.537,235.03 666.537,234.363 667.5,233.5C 667.5,233.167 667.5,232.833 667.5,232.5C 671.912,231.03 676.245,229.363 680.5,227.5 Z"/></g>
<g><path style="opacity:0.004" fill="#aac586" d="M 636.5,248.5 C 635.833,247.167 635.833,247.167 636.5,248.5 Z"/></g>
<g><path style="opacity:0.004" fill="#a8c687" d="M 636.5,248.5 C 637.167,248.5 637.5,248.833 637.5,249.5C 637.167,249.167 636.833,248.833 636.5,248.5 Z"/></g>
<g><path style="opacity:0.016" fill="#acc789" d="M 634.5,251.5 C 633.833,250.167 633.833,250.167 634.5,251.5 Z"/></g>
<g><path style="opacity:0.004" fill="#aac586" d="M 615.5,263.5 C 616.833,264.167 616.833,264.167 615.5,263.5 Z"/></g>
<g><path style="opacity:0.996" fill="#abc57b" d="M 609.5,273.5 C 609.5,273.167 609.5,272.833 609.5,272.5C 617.541,265.124 625.874,258.124 634.5,251.5C 636.027,251.573 637.027,250.906 637.5,249.5C 638.167,249.5 638.833,249.5 639.5,249.5C 640.583,249.461 641.583,249.127 642.5,248.5C 643.696,248.846 643.696,249.346 642.5,250C 631.263,256.791 620.93,264.791 611.5,274C 610.563,274.692 609.897,274.525 609.5,273.5 Z"/></g>
<g><path style="opacity:0.988" fill="#aac57b" d="M 862.5,258.5 C 862.647,263.214 862.314,267.881 861.5,272.5C 860.768,273.808 859.934,275.142 859,276.5C 859.7,266.861 860.7,257.195 862,247.5C 862.499,251.152 862.665,254.818 862.5,258.5 Z"/></g>
<g><path style="opacity:0.012" fill="#a9c386" d="M 862.5,270.5 C 863.833,271.167 863.833,271.167 862.5,270.5 Z"/></g>
<g><path style="opacity:0.004" fill="#aec88d" d="M 609.5,272.5 C 608.833,271.167 608.833,271.167 609.5,272.5 Z"/></g>
<g><path style="opacity:0.004" fill="#aac586" d="M 862.5,273.5 C 863.833,274.167 863.833,274.167 862.5,273.5 Z"/></g>
<g><path style="opacity:0.004" fill="#acc586" d="M 596.5,285.5 C 595.833,284.167 595.833,284.167 596.5,285.5 Z"/></g>
<g><path style="opacity:0.004" fill="#abc689" d="M 591.5,287.5 C 592.833,288.167 592.833,288.167 591.5,287.5 Z"/></g>
<g><path style="opacity:0.008" fill="#b0cd8c" d="M 737.5,291.5 C 738.833,292.167 738.833,292.167 737.5,291.5 Z"/></g>
<g><path style="opacity:1" fill="#abc57b" d="M 603.5,279.5 C 603.938,279.435 604.272,279.601 604.5,280C 590.461,295.909 578.794,313.409 569.5,332.5C 568.351,334.925 567.684,334.925 567.5,332.5C 567.833,331.167 568.167,329.833 568.5,328.5C 576.586,313.322 585.919,298.988 596.5,285.5C 598.833,283.5 601.167,281.5 603.5,279.5 Z"/></g>
<g><path style="opacity:0.984" fill="#a8c277" d="M 859.5,284.5 C 859.477,289.297 858.811,293.964 857.5,298.5C 856.71,299.609 856.21,300.942 856,302.5C 855.833,301.333 855.667,300.167 855.5,299C 856.505,292.379 857.672,285.879 859,279.5C 859.494,281.134 859.66,282.801 859.5,284.5 Z"/></g>
<g><path style="opacity:0.02" fill="#b3ce91" d="M 732.5,294.5 C 733.833,295.167 733.833,295.167 732.5,294.5 Z"/></g>
<g><path style="opacity:0.004" fill="#abc687" d="M 859.5,294.5 C 860.833,295.167 860.833,295.167 859.5,294.5 Z"/></g>
<g><path style="opacity:0.004" fill="#b2cb8d" d="M 732.5,296.5 C 733.833,297.167 733.833,297.167 732.5,296.5 Z"/></g>
<g><path style="opacity:0.008" fill="#b1cd8c" d="M 726.5,299.5 C 727.833,300.167 727.833,300.167 726.5,299.5 Z"/></g>
<g><path style="opacity:1" fill="#aac67b" d="M 729.5,296.5 C 727.091,297.701 725.091,299.367 723.5,301.5C 720.328,303.252 717.328,305.252 714.5,307.5C 713.761,307.631 713.094,307.464 712.5,307C 715.391,304.414 718.391,301.914 721.5,299.5C 720.585,296.921 721.418,296.254 724,297.5C 725.626,296.711 727.126,295.711 728.5,294.5C 729.298,294.957 729.631,295.624 729.5,296.5 Z"/></g>
<g><path style="opacity:0.004" fill="#b0cd8b" d="M 723.5,301.5 C 724.833,302.167 724.833,302.167 723.5,301.5 Z"/></g>
<g><path style="opacity:0.992" fill="#acc77e" d="M 722.5,312.5 C 724.833,309.833 727.167,307.167 729.5,304.5C 732.334,302.498 734.667,299.998 736.5,297C 733.814,293.524 734.147,293.024 737.5,295.5C 738.107,295.376 738.44,295.043 738.5,294.5C 739.5,294.167 740.167,293.5 740.5,292.5C 743.438,291.378 745.438,289.378 746.5,286.5C 749.153,284.845 751.486,282.845 753.5,280.5C 754.167,280.5 754.5,280.167 754.5,279.5C 754.833,279.5 755.167,279.5 755.5,279.5C 756.738,278.588 758.072,278.421 759.5,279C 754.362,282.142 749.862,285.976 746,290.5C 745.517,291.448 745.351,292.448 745.5,293.5C 742.936,294.866 740.436,296.533 738,298.5C 736.632,299.993 736.465,301.493 737.5,303C 736.256,303.456 735.423,302.956 735,301.5C 731.368,306.134 727.368,310.467 723,314.5C 722.536,313.906 722.369,313.239 722.5,312.5 Z"/></g>
<g><path style="opacity:0.004" fill="#b1cc8e" d="M 738.5,294.5 C 737.833,293.167 737.833,293.167 738.5,294.5 Z"/></g>
<g><path style="opacity:0.008" fill="#b2cc8e" d="M 729.5,304.5 C 728.761,304.631 728.094,304.464 727.5,304C 728.437,303.308 729.103,303.475 729.5,304.5 Z"/></g>
<g><path style="opacity:0.01" fill="#b2cb8d" d="M 721.5,312.5 C 720.761,312.631 720.094,312.464 719.5,312C 720.437,311.308 721.103,311.475 721.5,312.5 Z"/></g>
<g><path style="opacity:0.004" fill="#aec989" d="M 709.5,312.5 C 710.833,313.167 710.833,313.167 709.5,312.5 Z"/></g>
<g><path style="opacity:0.004" fill="#aeca89" d="M 708.5,313.5 C 708.833,313.5 709.167,313.5 709.5,313.5C 709.315,314.17 708.981,314.17 708.5,313.5 Z"/></g>
<g><path style="opacity:0.012" fill="#acca88" d="M 707.5,314.5 C 707.833,314.5 708.167,314.5 708.5,314.5C 708.315,315.17 707.981,315.17 707.5,314.5 Z"/></g>
<g><path style="opacity:0.012" fill="#abc38b" d="M 854.5,317.5 C 855.525,317.897 855.692,318.563 855,319.5C 854.536,318.906 854.369,318.239 854.5,317.5 Z"/></g>
<g><path style="opacity:0.012" fill="#b0c98f" d="M 702.5,318.5 C 703.833,319.167 703.833,319.167 702.5,318.5 Z"/></g>
<g><path style="opacity:1" fill="#a9c478" d="M 719.5,315.5 C 720.239,315.369 720.906,315.536 721.5,316C 718.035,320.467 714.202,324.633 710,328.5C 709.536,327.906 709.369,327.239 709.5,326.5C 712.862,322.808 716.195,319.141 719.5,315.5 Z"/></g>
<g><path style="opacity:0.004" fill="#abc688" d="M 568.5,324.5 C 569.833,325.167 569.833,325.167 568.5,324.5 Z"/></g>
<g><path style="opacity:0.01" fill="#b1cb8e" d="M 694.5,325.5 C 695.043,325.56 695.376,325.893 695.5,326.5C 694.743,327.773 694.077,327.773 693.5,326.5C 694.167,326.5 694.5,326.167 694.5,325.5 Z"/></g>
<g><path style="opacity:0.004" fill="#abc786" d="M 852.5,326.5 C 853.833,327.167 853.833,327.167 852.5,326.5 Z"/></g>
<g><path style="opacity:0.02" fill="#aac68a" d="M 568.5,328.5 C 567.833,327.167 567.833,327.167 568.5,328.5 Z"/></g>
<g><path style="opacity:0.988" fill="#acc67c" d="M 699.5,319.5 C 697.833,321.5 696.167,323.5 694.5,325.5C 693.833,325.5 693.5,325.833 693.5,326.5C 688.539,330.126 683.872,334.126 679.5,338.5C 678.761,338.631 678.094,338.464 677.5,338C 683.471,331.697 689.805,325.697 696.5,320C 697.416,319.626 698.25,319.126 699,318.5C 699.399,318.728 699.565,319.062 699.5,319.5 Z"/></g>
<g><path style="opacity:0.004" fill="#a9c486" d="M 561.5,336.5 C 562.833,337.167 562.833,337.167 561.5,336.5 Z"/></g>
<g><path style="opacity:0.992" fill="#a9c276" d="M 706.5,329.5 C 707.239,329.369 707.906,329.536 708.5,330C 706.372,333.13 703.872,335.963 701,338.5C 700.536,337.906 700.369,337.239 700.5,336.5C 702.529,334.142 704.529,331.808 706.5,329.5 Z"/></g>
<g><path style="opacity:0.004" fill="#a9c685" d="M 559.5,338.5 C 560.833,339.167 560.833,339.167 559.5,338.5 Z"/></g>
<g><path style="opacity:0.004" fill="#aec88b" d="M 559.5,344.5 C 560.525,344.897 560.692,345.563 560,346.5C 559.536,345.906 559.369,345.239 559.5,344.5 Z"/></g>
<g><path style="opacity:1" fill="#abc57b" d="M 676.5,341.5 C 672.034,346.152 667.368,350.486 662.5,354.5C 661.637,355.463 660.97,355.463 660.5,354.5C 664.706,349.795 669.04,345.295 673.5,341C 675.304,339.188 676.304,339.354 676.5,341.5 Z"/></g>
<g><path style="opacity:0.996" fill="#aac579" d="M 697.5,339.5 C 698.239,339.369 698.906,339.536 699.5,340C 687.653,353.517 676.153,367.35 665,381.5C 663.608,383.842 662.775,383.842 662.5,381.5C 663.752,379.999 664.752,378.332 665.5,376.5C 669.777,371.116 674.11,365.782 678.5,360.5C 685.175,353.825 691.508,346.825 697.5,339.5 Z"/></g>
<g><path style="opacity:0.008" fill="#a8c388" d="M 845.5,350.5 C 846.833,351.167 846.833,351.167 845.5,350.5 Z"/></g>
<g><path style="opacity:0.996" fill="#a9c475" d="M 842.5,355.5 C 842.737,356.791 842.404,357.791 841.5,358.5C 840.833,358.833 840.167,359.167 839.5,359.5C 839.892,357.821 840.392,356.154 841,354.5C 842.107,353.288 842.607,353.621 842.5,355.5 Z"/></g>
<g><path style="opacity:0.008" fill="#abc586" d="M 843.5,356.5 C 844.833,357.167 844.833,357.167 843.5,356.5 Z"/></g>
<g><path style="opacity:0.004" fill="#abc386" d="M 556.5,359.5 C 556.167,359.5 555.833,359.5 555.5,359.5C 555.833,356.833 556.167,356.833 556.5,359.5 Z"/></g>
<g><path style="opacity:0.004" fill="#adc786" d="M 555.5,359.5 C 554.833,360.167 554.833,360.167 555.5,359.5 Z"/></g>
<g><path style="opacity:1" fill="#a9c378" d="M 556.5,363.5 C 556.5,362.167 556.5,360.833 556.5,359.5C 558.01,356.317 559.343,352.984 560.5,349.5C 561.117,349.389 561.617,349.056 562,348.5C 561.188,354.956 559.521,361.289 557,367.5C 556.51,366.207 556.343,364.873 556.5,363.5 Z"/></g>
<g><path style="opacity:0.004" fill="#b0ca89" d="M 678.5,360.5 C 677.833,359.167 677.833,359.167 678.5,360.5 Z"/></g>
<g><path style="opacity:0.004" fill="#b1cb88" d="M 672.5,360.5 C 673.833,361.167 673.833,361.167 672.5,360.5 Z"/></g>
<g><path style="opacity:1" fill="#aac478" d="M 658.5,359.5 C 653.793,364.205 649.46,369.205 645.5,374.5C 643.833,375.5 642.5,376.833 641.5,378.5C 639.972,378.483 639.472,377.816 640,376.5C 645.677,369.991 651.511,363.657 657.5,357.5C 658.298,357.957 658.631,358.624 658.5,359.5 Z"/></g>
<g><path style="opacity:0.004" fill="#a8c284" d="M 840.5,364.5 C 841.833,365.167 841.833,365.167 840.5,364.5 Z"/></g>
<g><path style="opacity:0.008" fill="#b2ca8c" d="M 645.5,374.5 C 646.239,374.369 646.906,374.536 647.5,375C 646.563,375.692 645.897,375.525 645.5,374.5 Z"/></g>
<g><path style="opacity:0.004" fill="#b2cd8f" d="M 665.5,376.5 C 664.833,375.167 664.833,375.167 665.5,376.5 Z"/></g>
<g><path style="opacity:0.004" fill="#b0cb8c" d="M 660.5,382.5 C 659.833,381.167 659.833,381.167 660.5,382.5 Z"/></g>
<g><path style="opacity:0.012" fill="#b0c98c" d="M 638.5,382.5 C 639.833,383.167 639.833,383.167 638.5,382.5 Z"/></g>
<g><path style="opacity:0.004" fill="#b1ca8c" d="M 657.5,386.5 C 656.833,385.167 656.833,385.167 657.5,386.5 Z"/></g>
<g><path style="opacity:0.008" fill="#b1cb8c" d="M 635.5,386.5 C 636.833,387.167 636.833,387.167 635.5,386.5 Z"/></g>
<g><path style="opacity:0.008" fill="#a8c385" d="M 829.5,390.5 C 830.833,391.167 830.833,391.167 829.5,390.5 Z"/></g>
<g><path style="opacity:1" fill="#abc478" d="M 635.5,385.5 C 635.5,385.833 635.5,386.167 635.5,386.5C 631.833,390.5 628.167,394.5 624.5,398.5C 623.475,398.103 623.308,397.437 624,396.5C 628.048,392.12 631.715,387.454 635,382.5C 635.483,383.448 635.649,384.448 635.5,385.5 Z"/></g>
<g><path style="opacity:0.012" fill="#abc588" d="M 548.5,391.5 C 549.525,391.897 549.692,392.563 549,393.5C 548.536,392.906 548.369,392.239 548.5,391.5 Z"/></g>
<g><path style="opacity:0.98" fill="#aac676" d="M 649.5,398.5 C 650.124,396.246 651.457,394.579 653.5,393.5C 655.105,392.031 655.605,392.365 655,394.5C 653.315,396.017 651.815,397.684 650.5,399.5C 649.893,399.376 649.56,399.043 649.5,398.5 Z"/></g>
<g><path style="opacity:0.004" fill="#aac485" d="M 826.5,396.5 C 827.833,397.167 827.833,397.167 826.5,396.5 Z"/></g>
<g><path style="opacity:0.004" fill="#b1cc8b" d="M 639.5,402.5 C 640.833,403.167 640.833,403.167 639.5,402.5 Z"/></g>
<g><path style="opacity:0.008" fill="#abc685" d="M 547.5,403.5 C 548.833,404.167 548.833,404.167 547.5,403.5 Z"/></g>
<g><path style="opacity:0.008" fill="#b3cd90" d="M 639.5,407.5 C 640.833,408.167 640.833,408.167 639.5,407.5 Z"/></g>
<g><path style="opacity:0.004" fill="#adc888" d="M 546.5,408.5 C 547.833,409.167 547.833,409.167 546.5,408.5 Z"/></g>
<g><path style="opacity:0.992" fill="#abc67f" d="M 551.5,387.5 C 551.901,401.329 552.067,415.329 552,429.5C 552.121,435.306 552.954,440.973 554.5,446.5C 554.333,447.5 554.167,448.5 554,449.5C 553.722,448.584 553.222,447.918 552.5,447.5C 547.671,427.281 547.337,407.281 551.5,387.5 Z"/></g>
<g><path style="opacity:0.004" fill="#b2cd8d" d="M 636.5,414.5 C 635.833,413.167 635.833,413.167 636.5,414.5 Z"/></g>
<g><path style="opacity:0.004" fill="#b2cb90" d="M 614.5,414.5 C 615.833,415.167 615.833,415.167 614.5,414.5 Z"/></g>
<g><path style="opacity:0.98" fill="#aac478" d="M 647.5,400.5 C 648.239,400.369 648.906,400.536 649.5,401C 645,407.5 640.5,414 636,420.5C 634.608,422.842 633.775,422.842 633.5,420.5C 634.529,418.483 635.529,416.483 636.5,414.5C 640.156,409.872 643.822,405.206 647.5,400.5 Z"/></g>
<g><path style="opacity:0.984" fill="#acc57b" d="M 622.5,401.5 C 614.134,413.523 605.801,425.523 597.5,437.5C 596.637,438.463 595.97,438.463 595.5,437.5C 600.944,428.769 606.444,420.769 612,413.5C 614.557,408.277 617.891,403.61 622,399.5C 622.464,400.094 622.631,400.761 622.5,401.5 Z"/></g>
<g><path style="opacity:0.008" fill="#adc689" d="M 547.5,427.5 C 548.833,428.167 548.833,428.167 547.5,427.5 Z"/></g>
<g><path style="opacity:0.004" fill="#aec888" d="M 547.5,430.5 C 548.833,431.167 548.833,431.167 547.5,430.5 Z"/></g>
<g><path style="opacity:0.004" fill="#a8c387" d="M 797.5,440.5 C 798.833,441.167 798.833,441.167 797.5,440.5 Z"/></g>
<g><path style="opacity:0.004" fill="#b1cd8c" d="M 594.5,444.5 C 595.833,445.167 595.833,445.167 594.5,444.5 Z"/></g>
<g><path style="opacity:0.008" fill="#a4c287" d="M 201.5,448.5 C 200.833,447.167 200.833,447.167 201.5,448.5 Z"/></g>
<g><path style="opacity:0.993" fill="#aec87f" d="M 281.5,448.5 C 282.609,449.29 283.942,449.79 285.5,450C 283.167,450.167 280.833,450.333 278.5,450.5C 262.024,449.255 245.69,448.255 229.5,447.5C 246.77,446.577 264.103,446.911 281.5,448.5 Z"/></g>
<g><path style="opacity:0.008" fill="#acc98a" d="M 290.5,447.5 C 291.833,448.167 291.833,448.167 290.5,447.5 Z"/></g>
<g><path style="opacity:0.004" fill="#aac58a" d="M 292.5,447.5 C 293.833,448.167 293.833,448.167 292.5,447.5 Z"/></g>
<g><path style="opacity:0.006" fill="#aac686" d="M 298.5,449.5 C 298.897,448.475 299.563,448.308 300.5,449C 299.906,449.464 299.239,449.631 298.5,449.5 Z"/></g>
<g><path style="opacity:0.937" fill="#aac47b" d="M 841.5,358.5 C 830.99,388.194 816.323,415.528 797.5,440.5C 792.068,447.022 786.401,453.355 780.5,459.5C 778.972,459.483 778.472,458.816 779,457.5C 785.765,451.574 791.598,444.907 796.5,437.5C 796.291,436.914 795.957,436.414 795.5,436C 798.952,434.215 801.786,431.715 804,428.5C 809.502,420.322 814.336,411.822 818.5,403C 815.507,402.573 815.007,401.406 817,399.5C 818.43,399.694 819.93,399.694 821.5,399.5C 822.728,395.121 824.061,390.788 825.5,386.5C 825.291,385.914 824.957,385.414 824.5,385C 826.027,383.632 827.527,383.132 829,383.5C 832.299,375.252 835.799,367.252 839.5,359.5C 840.167,359.167 840.833,358.833 841.5,358.5 Z"/></g>
<g><path style="opacity:0.004" fill="#aac888" d="M 304.5,449.5 C 305.833,450.167 305.833,450.167 304.5,449.5 Z"/></g>
<g><path style="opacity:0.004" fill="#adc888" d="M 306.5,449.5 C 307.833,450.167 307.833,450.167 306.5,449.5 Z"/></g>
<g><path style="opacity:0.986" fill="#a8c372" d="M 207.5,448.5 C 209.167,448.5 210.833,448.5 212.5,448.5C 216.182,448.335 219.848,448.501 223.5,449C 214.531,450.387 205.531,451.053 196.5,451C 200.43,450.758 204.097,449.925 207.5,448.5 Z"/></g>
<g><path style="opacity:0.986" fill="#a9c374" d="M 296.5,450.5 C 296.833,450.5 297.167,450.5 297.5,450.5C 298.952,451.302 300.618,451.802 302.5,452C 298.112,452.577 293.779,452.244 289.5,451C 291.81,450.503 294.143,450.337 296.5,450.5 Z"/></g>
<g><path style="opacity:0.012" fill="#adc787" d="M 315.5,451.5 C 316.833,452.167 316.833,452.167 315.5,451.5 Z"/></g>
<g><path style="opacity:0.004" fill="#b2cc8d" d="M 590.5,451.5 C 591.833,452.167 591.833,452.167 590.5,451.5 Z"/></g>
<g><path style="opacity:0.004" fill="#b1cd8c" d="M 607.5,452.5 C 608.833,453.167 608.833,453.167 607.5,452.5 Z"/></g>
<g><path style="opacity:0.004" fill="#adc98c" d="M 551.5,453.5 C 552.833,454.167 552.833,454.167 551.5,453.5 Z"/></g>
<g><path style="opacity:1" fill="#aac478" d="M 594.5,442.5 C 591.167,448.5 587.833,454.5 584.5,460.5C 583.624,460.631 582.957,460.298 582.5,459.5C 586.346,453.134 590.18,446.801 594,440.5C 594.464,441.094 594.631,441.761 594.5,442.5 Z"/></g>
<g><path style="opacity:0.012" fill="#abc78a" d="M 332.5,455.5 C 333.833,456.167 333.833,456.167 332.5,455.5 Z"/></g>
<g><path style="opacity:0.006" fill="#b3cc91" d="M 608.5,457.5 C 607.475,457.103 607.308,456.437 608,455.5C 608.464,456.094 608.631,456.761 608.5,457.5 Z"/></g>
<g><path style="opacity:0.004" fill="#a4bd83" d="M 191.5,456.5 C 192.833,457.167 192.833,457.167 191.5,456.5 Z"/></g>
<g><path style="opacity:0.004" fill="#a9c589" d="M 342.5,458.5 C 343.833,459.167 343.833,459.167 342.5,458.5 Z"/></g>
<g><path style="opacity:0.996" fill="#aac578" d="M 622.5,436.5 C 623.573,437.251 623.74,438.251 623,439.5C 603.88,468 587.214,498 573,529.5C 571.893,530.712 571.393,530.379 571.5,528.5C 576.114,518.941 580.447,509.274 584.5,499.5C 590.991,489.192 596.991,478.526 602.5,467.5C 604.485,464.202 606.485,460.869 608.5,457.5C 613.167,450.5 617.833,443.5 622.5,436.5 Z"/></g>
<g><path style="opacity:0.004" fill="#a7c285" d="M 198.5,462.5 C 197.833,463.167 197.833,463.167 198.5,462.5 Z"/></g>
<g><path style="opacity:0.995" fill="#acc77e" d="M 335.5,458.5 C 337.806,458.993 340.139,459.326 342.5,459.5C 346.895,461.687 351.561,463.353 356.5,464.5C 358.426,465.486 360.426,466.486 362.5,467.5C 363.85,468.65 363.684,469.317 362,469.5C 352.074,465.472 341.907,461.972 331.5,459C 332.793,458.51 334.127,458.343 335.5,458.5 Z"/></g>
<g><path style="opacity:0.004" fill="#acc78b" d="M 356.5,464.5 C 357.251,463.427 358.251,463.26 359.5,464C 358.552,464.483 357.552,464.649 356.5,464.5 Z"/></g>
<g><path style="opacity:0.016" fill="#afcd8b" d="M 602.5,463.5 C 603.833,464.167 603.833,464.167 602.5,463.5 Z"/></g>
<g><path style="opacity:0.004" fill="#aac888" d="M 556.5,465.5 C 555.833,466.167 555.833,466.167 556.5,465.5 Z"/></g>
<g><path style="opacity:0.004" fill="#afcd8c" d="M 599.5,466.5 C 600.833,467.167 600.833,467.167 599.5,466.5 Z"/></g>
<g><path style="opacity:0.008" fill="#b0cc8d" d="M 602.5,467.5 C 601.833,466.167 601.833,466.167 602.5,467.5 Z"/></g>
<g><path style="opacity:0.996" fill="#abc67c" d="M 563.5,481.5 C 561.167,476.167 558.833,470.833 556.5,465.5C 556.5,464.5 556.5,463.5 556.5,462.5C 556.351,461.448 556.517,460.448 557,459.5C 559.3,467.202 562.134,474.702 565.5,482C 565.333,482.5 565.167,483 565,483.5C 564.722,482.584 564.222,481.918 563.5,481.5 Z"/></g>
<g><path style="opacity:0.98" fill="#a9c478" d="M 582.5,463.5 C 580.072,468.693 577.405,473.693 574.5,478.5C 573.903,478.265 573.57,477.765 573.5,477C 575.959,471.615 578.793,466.449 582,461.5C 582.464,462.094 582.631,462.761 582.5,463.5 Z"/></g>
<g><path style="opacity:0.996" fill="#aac379" d="M 770.5,469.5 C 767.527,471.806 764.86,474.473 762.5,477.5C 756.851,481.475 751.185,485.475 745.5,489.5C 744.761,489.631 744.094,489.464 743.5,489C 752.084,483.087 760.084,476.42 767.5,469C 769.304,467.188 770.304,467.354 770.5,469.5 Z"/></g>
<g><path style="opacity:0.004" fill="#b1ca89" d="M 591.5,475.5 C 592.833,476.167 592.833,476.167 591.5,475.5 Z"/></g>
<g><path style="opacity:0.008" fill="#a9c585" d="M 762.5,477.5 C 763.833,478.167 763.833,478.167 762.5,477.5 Z"/></g>
<g><path style="opacity:0.004" fill="#aeca8a" d="M 390.5,479.5 C 391.833,480.167 391.833,480.167 390.5,479.5 Z"/></g>
<g><path style="opacity:0.988" fill="#a9c479" d="M 573.5,480.5 C 572.483,484.867 570.65,488.867 568,492.5C 567.209,491.255 566.709,489.922 566.5,488.5C 568.446,486.754 570.113,484.088 571.5,480.5C 572.257,479.227 572.923,479.227 573.5,480.5 Z"/></g>
<g><path style="opacity:0.004" fill="#b0cb8f" d="M 591.5,480.5 C 592.833,481.167 592.833,481.167 591.5,480.5 Z"/></g>
<g><path style="opacity:0.004" fill="#adca8c" d="M 574.5,481.5 C 575.833,482.167 575.833,482.167 574.5,481.5 Z"/></g>
<g><path style="opacity:0.992" fill="#aac57c" d="M 225.5,501.5 C 225.5,500.833 225.167,500.5 224.5,500.5C 223,496.827 221,493.494 218.5,490.5C 212.99,480.326 206.324,470.993 198.5,462.5C 197.167,460.5 195.833,458.5 194.5,456.5C 194.897,455.475 195.563,455.308 196.5,456C 198.545,458.341 200.545,460.674 202.5,463C 203.448,463.483 204.448,463.649 205.5,463.5C 205.372,465.655 205.872,467.655 207,469.5C 214.827,479.147 221.66,489.48 227.5,500.5C 227.043,501.298 226.376,501.631 225.5,501.5 Z"/></g>
<g><path style="opacity:0.004" fill="#aeca8a" d="M 561.5,482.5 C 562.833,483.167 562.833,483.167 561.5,482.5 Z"/></g>
<g><path style="opacity:0.004" fill="#afc98b" d="M 573.5,483.5 C 574.833,484.167 574.833,484.167 573.5,483.5 Z"/></g>
<g><path style="opacity:0.004" fill="#adc789" d="M 398.5,484.5 C 399.833,485.167 399.833,485.167 398.5,484.5 Z"/></g>
<g><path style="opacity:0.004" fill="#aec989" d="M 563.5,484.5 C 562.833,485.167 562.833,485.167 563.5,484.5 Z"/></g>
<g><path style="opacity:0.004" fill="#a9c587" d="M 215.5,487.5 C 216.833,488.167 216.833,488.167 215.5,487.5 Z"/></g>
<g><path style="opacity:0.016" fill="#a8c585" d="M 218.5,490.5 C 217.833,491.167 217.833,491.167 218.5,490.5 Z"/></g>
<g><path style="opacity:1" fill="#aac57c" d="M 741.5,492.5 C 734.037,498.284 726.037,503.284 717.5,507.5C 716.448,507.649 715.448,507.483 714.5,507C 723.155,502.671 731.155,497.338 738.5,491C 738.167,490.667 737.833,490.333 737.5,490C 739.289,489.48 740.956,489.813 742.5,491C 741.944,491.383 741.611,491.883 741.5,492.5 Z"/></g>
<g><path style="opacity:0.004" fill="#b2cd8f" d="M 584.5,499.5 C 583.833,498.167 583.833,498.167 584.5,499.5 Z"/></g>
<g><path style="opacity:0.004" fill="#a9c489" d="M 224.5,500.5 C 223.833,501.167 223.833,501.167 224.5,500.5 Z"/></g>
<g><path style="opacity:0.008" fill="#aac585" d="M 731.5,500.5 C 732.833,501.167 732.833,501.167 731.5,500.5 Z"/></g>
<g><path style="opacity:0.973" fill="#acc67d" d="M 370.5,471.5 C 380.143,475.655 389.477,480.322 398.5,485.5C 409.861,493.198 420.527,501.864 430.5,511.5C 430.483,513.028 429.816,513.528 428.5,513C 422.917,507.207 416.917,501.873 410.5,497C 397.416,487.587 383.083,479.253 367.5,472C 368.448,471.517 369.448,471.351 370.5,471.5 Z"/></g>
<g><path style="opacity:0.004" fill="#a8c585" d="M 731.5,501.5 C 730.833,502.167 730.833,502.167 731.5,501.5 Z"/></g>
<g><path style="opacity:0.004" fill="#a8c387" d="M 223.5,504.5 C 224.833,505.167 224.833,505.167 223.5,504.5 Z"/></g>
<g><path style="opacity:0.004" fill="#b0ca8a" d="M 580.5,504.5 C 581.833,505.167 581.833,505.167 580.5,504.5 Z"/></g>
<g><path style="opacity:0.008" fill="#aac386" d="M 228.5,510.5 C 229.833,511.167 229.833,511.167 228.5,510.5 Z"/></g>
<g><path style="opacity:0.004" fill="#adca87" d="M 434.5,513.5 C 435.833,514.167 435.833,514.167 434.5,513.5 Z"/></g>
<g><path style="opacity:0.006" fill="#acc68a" d="M 232.5,514.5 C 232.631,515.239 232.464,515.906 232,516.5C 231.308,515.563 231.475,514.897 232.5,514.5 Z"/></g>
<g><path style="opacity:0.004" fill="#aac687" d="M 699.5,517.5 C 700.833,518.167 700.833,518.167 699.5,517.5 Z"/></g>
<g><path style="opacity:0.004" fill="#abc689" d="M 679.5,525.5 C 680.833,526.167 680.833,526.167 679.5,525.5 Z"/></g>
<g><path style="opacity:0.984" fill="#aac47a" d="M 337.5,532.5 C 336.22,531.069 334.553,530.402 332.5,530.5C 331.791,529.596 330.791,529.263 329.5,529.5C 328.833,529.5 328.5,529.833 328.5,530.5C 324.062,527.466 319.062,525.799 313.5,525.5C 313.5,525.167 313.5,524.833 313.5,524.5C 313.082,523.778 312.416,523.278 311.5,523C 320.834,524.219 329.834,526.886 338.5,531C 339.712,532.107 339.379,532.607 337.5,532.5 Z"/></g>
<g><path style="opacity:0.961" fill="#aac57b" d="M 440.5,523.5 C 442.767,526.271 445.267,528.938 448,531.5C 452.275,538.405 456.775,545.072 461.5,551.5C 461.833,552.833 462.167,554.167 462.5,555.5C 462.631,556.239 462.464,556.906 462,557.5C 455.759,546.28 448.426,535.947 440,526.5C 439.26,525.251 439.427,524.251 440.5,523.5 Z"/></g>
<g><path style="opacity:0.99" fill="#aac47d" d="M 256.5,562.5 C 248.048,544.258 240.048,528.258 232.5,514.5C 231.424,511.352 230.091,508.352 228.5,505.5C 228.369,504.761 228.536,504.094 229,503.5C 239.5,522.167 249.166,541.167 258,560.5C 258.853,562.948 258.353,563.614 256.5,562.5 Z"/></g>
<g><path style="opacity:0.004" fill="#aeca8c" d="M 568.5,527.5 C 569.833,528.167 569.833,528.167 568.5,527.5 Z"/></g>
<g><path style="opacity:0.008" fill="#b6d093" d="M 325.5,530.5 C 326.833,531.167 326.833,531.167 325.5,530.5 Z"/></g>
<g><path style="opacity:0.008" fill="#b3cd90" d="M 329.5,529.5 C 330.791,529.263 331.791,529.596 332.5,530.5C 330.965,531.354 329.632,531.354 328.5,530.5C 329.167,530.5 329.5,530.167 329.5,529.5 Z"/></g>
<g><path style="opacity:0.194" fill="#b4cd92" d="M 332.5,530.5 C 334.553,530.402 336.22,531.069 337.5,532.5C 336.5,532.5 335.5,532.5 334.5,532.5C 333.833,531.833 333.167,531.167 332.5,530.5 Z"/></g>
<g><path style="opacity:0.008" fill="#b2cc8c" d="M 334.5,532.5 C 333.833,533.167 333.833,533.167 334.5,532.5 Z"/></g>
<g><path style="opacity:0.005" fill="#b2cd90" d="M 337.5,533.5 C 337.217,534.289 336.717,534.956 336,535.5C 335.472,534.184 335.972,533.517 337.5,533.5 Z"/></g>
<g><path style="opacity:0.069" fill="#b3cd96" d="M 641.5,534.5 C 642.568,533.566 643.901,533.232 645.5,533.5C 645.918,534.222 646.584,534.722 647.5,535C 645.512,535.18 643.512,535.014 641.5,534.5 Z"/></g>
<g><path style="opacity:0.99" fill="#abc57c" d="M 645.5,533.5 C 643.901,533.232 642.568,533.566 641.5,534.5C 633.271,536.26 624.938,537.26 616.5,537.5C 615.448,537.649 614.448,537.483 613.5,537C 622.546,535.287 631.712,533.787 641,532.5C 642.707,532.508 644.207,532.842 645.5,533.5 Z"/></g>
<g><path style="opacity:0.004" fill="#acc789" d="M 648.5,534.5 C 649.833,535.167 649.833,535.167 648.5,534.5 Z"/></g>
<g><path style="opacity:0.004" fill="#b1cc8e" d="M 343.5,537.5 C 344.833,538.167 344.833,538.167 343.5,537.5 Z"/></g>
<g><path style="opacity:0.008" fill="#aeca89" d="M 454.5,538.5 C 453.833,537.167 453.833,537.167 454.5,538.5 Z"/></g>
<g><path style="opacity:0.004" fill="#a8c587" d="M 241.5,538.5 C 242.833,539.167 242.833,539.167 241.5,538.5 Z"/></g>
<g><path style="opacity:0.988" fill="#abc67c" d="M 326.5,533.5 C 337.731,539.747 348.397,546.747 358.5,554.5C 358.631,555.239 358.464,555.906 358,556.5C 347.544,548.869 336.71,541.869 325.5,535.5C 325.863,534.817 326.196,534.15 326.5,533.5 Z"/></g>
<g><path style="opacity:0.004" fill="#b1cc8b" d="M 345.5,538.5 C 346.833,539.167 346.833,539.167 345.5,538.5 Z"/></g>
<g><path style="opacity:0.004" fill="#acca8a" d="M 454.5,538.5 C 455.833,539.167 455.833,539.167 454.5,538.5 Z"/></g>
<g><path style="opacity:0.004" fill="#afca8a" d="M 622.5,538.5 C 623.833,539.167 623.833,539.167 622.5,538.5 Z"/></g>
<g><path style="opacity:0.004" fill="#abc685" d="M 244.5,541.5 C 245.833,542.167 245.833,542.167 244.5,541.5 Z"/></g>
<g><path style="opacity:0.004" fill="#b1cc8e" d="M 347.5,545.5 C 347.897,544.475 348.563,544.308 349.5,545C 348.906,545.464 348.239,545.631 347.5,545.5 Z"/></g>
<g><path style="opacity:0.004" fill="#aec98b" d="M 361.5,545.5 C 360.833,546.167 360.833,546.167 361.5,545.5 Z"/></g>
<g><path style="opacity:0.004" fill="#b2cb8d" d="M 363.5,547.5 C 364.833,548.167 364.833,548.167 363.5,547.5 Z"/></g>
<g><path style="opacity:0.004" fill="#afce8a" d="M 363.5,549.5 C 364.833,550.167 364.833,550.167 363.5,549.5 Z"/></g>
<g><path style="opacity:0.004" fill="#b0cd90" d="M 368.5,549.5 C 367.833,550.167 367.833,550.167 368.5,549.5 Z"/></g>
<g><path style="opacity:0.996" fill="#aac57b" d="M 557.5,558.5 C 559.989,551.528 562.989,544.861 566.5,538.5C 567.363,537.537 568.03,537.537 568.5,538.5C 565.667,545.161 562.834,551.827 560,558.5C 558.608,560.842 557.775,560.842 557.5,558.5 Z"/></g>
<g><path style="opacity:0.008" fill="#afcc8b" d="M 461.5,550.5 C 462.833,551.167 462.833,551.167 461.5,550.5 Z"/></g>
<g><path style="opacity:0.004" fill="#abc889" d="M 606.5,553.5 C 607.833,554.167 607.833,554.167 606.5,553.5 Z"/></g>
<g><path style="opacity:0.008" fill="#b2cd8e" d="M 361.5,554.5 C 362.833,555.167 362.833,555.167 361.5,554.5 Z"/></g>
<g><path style="opacity:0.004" fill="#b3cd8e" d="M 363.5,556.5 C 364.833,557.167 364.833,557.167 363.5,556.5 Z"/></g>
<g><path style="opacity:0.008" fill="#afcd88" d="M 378.5,556.5 C 377.833,557.167 377.833,557.167 378.5,556.5 Z"/></g>
<g><path style="opacity:0.004" fill="#a8c486" d="M 250.5,557.5 C 251.833,558.167 251.833,558.167 250.5,557.5 Z"/></g>
<g><path style="opacity:0.965" fill="#abc57b" d="M 383.5,558.5 C 382.833,558.5 382.167,558.5 381.5,558.5C 381.027,557.094 380.027,556.427 378.5,556.5C 375.743,553.421 372.41,551.088 368.5,549.5C 366.833,548.167 365.167,546.833 363.5,545.5C 362.537,544.637 362.537,543.97 363.5,543.5C 370.848,547.84 377.848,552.673 384.5,558C 384.272,558.399 383.938,558.565 383.5,558.5 Z"/></g>
<g><path style="opacity:0.004" fill="#b1cb8a" d="M 556.5,558.5 C 555.833,557.167 555.833,557.167 556.5,558.5 Z"/></g>
<g><path style="opacity:0.004" fill="#aecc8a" d="M 375.5,558.5 C 376.833,559.167 376.833,559.167 375.5,558.5 Z"/></g>
<g><path style="opacity:0.004" fill="#b0cc8d" d="M 381.5,558.5 C 380.833,559.167 380.833,559.167 381.5,558.5 Z"/></g>
<g><path style="opacity:0.008" fill="#afc989" d="M 604.5,558.5 C 605.833,559.167 605.833,559.167 604.5,558.5 Z"/></g>
<g><path style="opacity:0.988" fill="#a8c476" d="M 464.5,558.5 C 464.932,559.71 465.599,560.71 466.5,561.5C 466.833,562.833 467.167,564.167 467.5,565.5C 467.631,566.239 467.464,566.906 467,567.5C 465.103,564.873 463.603,562.039 462.5,559C 463.094,558.536 463.761,558.369 464.5,558.5 Z"/></g>
<g><path style="opacity:0.004" fill="#afc88a" d="M 466.5,560.5 C 467.833,561.167 467.833,561.167 466.5,560.5 Z"/></g>
<g><path style="opacity:0.008" fill="#afcd8b" d="M 385.5,562.5 C 386.833,563.167 386.833,563.167 385.5,562.5 Z"/></g>
<g><path style="opacity:0.341" fill="#b3ce95" d="M 555.5,562.5 C 555.672,563.492 555.338,564.158 554.5,564.5C 552.989,562.162 553.323,561.496 555.5,562.5 Z"/></g>
<g><path style="opacity:0.008" fill="#b1cd8b" d="M 374.5,564.5 C 375.833,565.167 375.833,565.167 374.5,564.5 Z"/></g>
<g><path style="opacity:0.008" fill="#b0cd8c" d="M 386.5,565.5 C 387.833,566.167 387.833,566.167 386.5,565.5 Z"/></g>
<g><path style="opacity:0.004" fill="#b2cf89" d="M 378.5,568.5 C 379.833,569.167 379.833,569.167 378.5,568.5 Z"/></g>
<g><path style="opacity:0.008" fill="#aecb8b" d="M 394.5,568.5 C 393.833,569.167 393.833,569.167 394.5,568.5 Z"/></g>
<g><path style="opacity:0.984" fill="#abc57c" d="M 605.5,552.5 C 601.78,562.275 597.78,571.941 593.5,581.5C 592.624,581.631 591.957,581.298 591.5,580.5C 595.395,571.044 599.562,561.71 604,552.5C 604.69,551.262 605.19,551.262 605.5,552.5 Z"/></g>
<g><path style="opacity:0.008" fill="#afcb8b" d="M 396.5,570.5 C 395.833,571.167 395.833,571.167 396.5,570.5 Z"/></g>
<g><path style="opacity:0.008" fill="#a9c587" d="M 259.5,573.5 C 260.833,574.167 260.833,574.167 259.5,573.5 Z"/></g>
<g><path style="opacity:0.008" fill="#adc78a" d="M 597.5,574.5 C 598.833,575.167 598.833,575.167 597.5,574.5 Z"/></g>
<g><path style="opacity:0.945" fill="#adc77d" d="M 425.5,597.5 C 422.919,594.312 419.919,591.645 416.5,589.5C 415.118,586.606 413.118,584.106 410.5,582C 405.94,577.931 401.274,574.098 396.5,570.5C 396.5,570.167 396.5,569.833 396.5,569.5C 396.47,568.503 396.97,567.836 398,567.5C 408.451,576.618 418.284,586.451 427.5,597C 426.906,597.464 426.239,597.631 425.5,597.5 Z"/></g>
<g><path style="opacity:0.004" fill="#b1cc8a" d="M 546.5,576.5 C 547.833,577.167 547.833,577.167 546.5,576.5 Z"/></g>
<g><path style="opacity:0.996" fill="#a9c47c" d="M 273.5,595.5 C 271.748,592.328 269.748,589.328 267.5,586.5C 265.785,582.069 263.785,577.735 261.5,573.5C 260.167,572.833 258.833,572.167 257.5,571.5C 258.167,570.833 258.833,570.167 259.5,569.5C 258.873,568.583 258.539,567.583 258.5,566.5C 258.369,565.761 258.536,565.094 259,564.5C 264.774,574.627 270.274,584.96 275.5,595.5C 275.03,596.463 274.363,596.463 273.5,595.5 Z"/></g>
<g><path style="opacity:0.996" fill="#a8c476" d="M 551.5,571.5 C 552.239,571.369 552.906,571.536 553.5,572C 552.484,576.251 550.65,580.085 548,583.5C 547.536,582.906 547.369,582.239 547.5,581.5C 548.639,578.082 549.972,574.749 551.5,571.5 Z"/></g>
<g><path style="opacity:0.008" fill="#a9c486" d="M 264.5,583.5 C 265.833,584.167 265.833,584.167 264.5,583.5 Z"/></g>
<g><path style="opacity:1" fill="#aac67b" d="M 469.5,569.5 C 472.973,576.802 475.639,584.468 477.5,592.5C 477.657,593.873 477.49,595.207 477,596.5C 474.299,587.381 471.133,578.381 467.5,569.5C 467.97,568.537 468.637,568.537 469.5,569.5 Z"/></g>
<g><path style="opacity:0.004" fill="#a8c486" d="M 264.5,584.5 C 263.833,585.167 263.833,585.167 264.5,584.5 Z"/></g>
<g><path style="opacity:0.004" fill="#a8c486" d="M 267.5,586.5 C 266.833,587.167 266.833,587.167 267.5,586.5 Z"/></g>
<g><path style="opacity:0.012" fill="#a8c486" d="M 267.5,589.5 C 268.833,590.167 268.833,590.167 267.5,589.5 Z"/></g>
<g><path style="opacity:0.004" fill="#b2ce8f" d="M 416.5,589.5 C 415.833,590.167 415.833,590.167 416.5,589.5 Z"/></g>
<g><path style="opacity:0.016" fill="#aac48a" d="M 590.5,590.5 C 591.833,591.167 591.833,591.167 590.5,590.5 Z"/></g>
<g><path style="opacity:0.004" fill="#aec98e" d="M 478.5,591.5 C 479.833,592.167 479.833,592.167 478.5,591.5 Z"/></g>
<g><path style="opacity:0.004" fill="#aac687" d="M 587.5,597.5 C 588.833,598.167 588.833,598.167 587.5,597.5 Z"/></g>
<g><path style="opacity:0.004" fill="#b3d08e" d="M 413.5,602.5 C 414.833,603.167 414.833,603.167 413.5,602.5 Z"/></g>
<g><path style="opacity:0.004" fill="#afce8c" d="M 537.5,603.5 C 536.833,602.167 536.833,602.167 537.5,603.5 Z"/></g>
<g><path style="opacity:0.992" fill="#a9c377" d="M 479.5,599.5 C 480.907,603.683 481.574,608.016 481.5,612.5C 481.666,616.514 481.499,620.514 481,624.5C 480.249,617.49 479.415,610.49 478.5,603.5C 478.511,601.955 478.844,600.622 479.5,599.5 Z"/></g>
<g><path style="opacity:0.008" fill="#b2cc8b" d="M 431.5,608.5 C 432.833,609.167 432.833,609.167 431.5,608.5 Z"/></g>
<g><path style="opacity:0.976" fill="#acc77e" d="M 449.5,626.5 C 448.167,625.167 446.833,623.833 445.5,622.5C 444.974,620.77 443.974,619.436 442.5,618.5C 441.219,615.553 439.219,613.219 436.5,611.5C 433.858,607.852 431.191,604.185 428.5,600.5C 428.369,599.761 428.536,599.094 429,598.5C 436.565,606.565 443.565,615.232 450,624.5C 450.692,625.437 450.525,626.103 449.5,626.5 Z"/></g>
<g><path style="opacity:0.004" fill="#b1cd8a" d="M 433.5,610.5 C 434.833,611.167 434.833,611.167 433.5,610.5 Z"/></g>
<g><path style="opacity:0.004" fill="#b1cc89" d="M 436.5,611.5 C 435.833,612.167 435.833,612.167 436.5,611.5 Z"/></g>
<g><path style="opacity:0.004" fill="#b3cd8c" d="M 431.5,612.5 C 432.833,613.167 432.833,613.167 431.5,612.5 Z"/></g>
<g><path style="opacity:0.008" fill="#a8c484" d="M 283.5,613.5 C 282.833,614.167 282.833,614.167 283.5,613.5 Z"/></g>
<g><path style="opacity:0.992" fill="#abc67b" d="M 535.5,611.5 C 536.097,611.735 536.43,612.235 536.5,613C 535.302,616.56 533.969,620.06 532.5,623.5C 531.758,626.083 531.092,626.083 530.5,623.5C 531.406,619.099 533.072,615.099 535.5,611.5 Z"/></g>
<g><path style="opacity:0.004" fill="#abc587" d="M 581.5,614.5 C 582.833,615.167 582.833,615.167 581.5,614.5 Z"/></g>
<g><path style="opacity:0.004" fill="#afcb8a" d="M 442.5,618.5 C 441.833,619.167 441.833,619.167 442.5,618.5 Z"/></g>
<g><path style="opacity:0.004" fill="#b0cc8d" d="M 440.5,620.5 C 441.833,621.167 441.833,621.167 440.5,620.5 Z"/></g>
<g><path style="opacity:0.004" fill="#b0cc8b" d="M 440.5,621.5 C 439.833,622.167 439.833,622.167 440.5,621.5 Z"/></g>
<g><path style="opacity:0.996" fill="#abc57b" d="M 297.5,629.5 C 292.461,624.463 287.794,619.129 283.5,613.5C 280.579,608.659 277.912,603.659 275.5,598.5C 276.077,597.227 276.743,597.227 277.5,598.5C 283.475,609.604 290.808,619.77 299.5,629C 298.906,629.464 298.239,629.631 297.5,629.5 Z"/></g>
<g><path style="opacity:0.012" fill="#aec88a" d="M 445.5,622.5 C 444.833,623.167 444.833,623.167 445.5,622.5 Z"/></g>
<g><path style="opacity:0.975" fill="#aac57a" d="M 396.5,587.5 C 418.661,608.65 436.994,632.65 451.5,659.5C 450.923,660.773 450.257,660.773 449.5,659.5C 434.933,633.754 417.1,610.421 396,589.5C 395.308,588.563 395.475,587.897 396.5,587.5 Z"/></g>
<g><path style="opacity:0.004" fill="#b1cb8b" d="M 436.5,631.5 C 437.833,632.167 437.833,632.167 436.5,631.5 Z"/></g>
<g><path style="opacity:0.006" fill="#b2cb8b" d="M 524.5,631.5 C 525.525,631.897 525.692,632.563 525,633.5C 524.536,632.906 524.369,632.239 524.5,631.5 Z"/></g>
<g><path style="opacity:0.004" fill="#b0ca8a" d="M 483.5,635.5 C 484.833,636.167 484.833,636.167 483.5,635.5 Z"/></g>
<g><path style="opacity:0.008" fill="#b0cc8c" d="M 483.5,638.5 C 484.833,639.167 484.833,639.167 483.5,638.5 Z"/></g>
<g><path style="opacity:0.004" fill="#b1cc8c" d="M 444.5,640.5 C 445.833,641.167 445.833,641.167 444.5,640.5 Z"/></g>
<g><path style="opacity:0.004" fill="#b0cc8b" d="M 457.5,642.5 C 458.833,643.167 458.833,643.167 457.5,642.5 Z"/></g>
<g><path style="opacity:0.992" fill="#abc579" d="M 461.5,645.5 C 461.167,645.5 460.833,645.5 460.5,645.5C 458.007,639.843 455.007,634.51 451.5,629.5C 451.369,628.761 451.536,628.094 452,627.5C 455.958,633.248 459.791,639.081 463.5,645C 462.906,645.464 462.239,645.631 461.5,645.5 Z"/></g>
<g><path style="opacity:0.882" fill="#a8c377" d="M 481.5,642.5 C 481.72,647.1 481.054,651.433 479.5,655.5C 478.778,655.918 478.278,656.584 478,657.5C 478.775,648.857 479.775,640.19 481,631.5C 481.499,635.152 481.665,638.818 481.5,642.5 Z"/></g>
<g><path style="opacity:0.004" fill="#acc787" d="M 570.5,644.5 C 571.833,645.167 571.833,645.167 570.5,644.5 Z"/></g>
<g><path style="opacity:0.008" fill="#b0cb8a" d="M 460.5,645.5 C 459.833,646.167 459.833,646.167 460.5,645.5 Z"/></g>
<g><path style="opacity:0.004" fill="#b2cc90" d="M 446.5,647.5 C 447.833,648.167 447.833,648.167 446.5,647.5 Z"/></g>
<g><path style="opacity:0.004" fill="#a8c484" d="M 318.5,651.5 C 317.833,652.167 317.833,652.167 318.5,651.5 Z"/></g>
<g><path style="opacity:0.992" fill="#abc57c" d="M 581.5,610.5 C 574.545,629.407 567.879,648.407 561.5,667.5C 560.883,667.611 560.383,667.944 560,668.5C 559.333,666.833 559.333,665.167 560,663.5C 564.333,650.833 568.667,638.167 573,625.5C 575.801,622.946 576.634,619.946 575.5,616.5C 577.848,613.801 579.682,610.801 581,607.5C 581.483,608.448 581.649,609.448 581.5,610.5 Z"/></g>
<g><path style="opacity:0.004" fill="#abc48a" d="M 566.5,654.5 C 567.833,655.167 567.833,655.167 566.5,654.5 Z"/></g>
<g><path style="opacity:0.004" fill="#aac48a" d="M 329.5,659.5 C 328.833,660.167 328.833,660.167 329.5,659.5 Z"/></g>
<g><path style="opacity:0.004" fill="#b1ce8b" d="M 511.5,662.5 C 512.833,663.167 512.833,663.167 511.5,662.5 Z"/></g>
<g><path style="opacity:0.98" fill="#aac479" d="M 359.5,673.5 C 355.438,672.368 351.438,671.035 347.5,669.5C 344.833,667.833 342.167,666.167 339.5,664.5C 340.251,663.427 341.251,663.26 342.5,664C 348.264,667.216 354.264,669.883 360.5,672C 361.712,673.107 361.379,673.607 359.5,673.5 Z"/></g>
<g><path style="opacity:0.996" fill="#aac57a" d="M 452.5,661.5 C 457.928,670.021 462.595,679.021 466.5,688.5C 466.631,689.239 466.464,689.906 466,690.5C 463.833,686.833 461.667,683.167 459.5,679.5C 457.53,674.226 455.03,669.226 452,664.5C 451.26,663.251 451.427,662.251 452.5,661.5 Z"/></g>
<g><path style="opacity:0.004" fill="#b1cc8d" d="M 472.5,669.5 C 471.833,668.167 471.833,668.167 472.5,669.5 Z"/></g>
<g><path style="opacity:0.004" fill="#b0cb8d" d="M 472.5,669.5 C 472.833,669.5 473.167,669.5 473.5,669.5C 473.315,670.17 472.981,670.17 472.5,669.5 Z"/></g>
<g><path style="opacity:0.008" fill="#a9c387" d="M 347.5,669.5 C 348.368,671.892 347.701,672.059 345.5,670C 346.094,669.536 346.761,669.369 347.5,669.5 Z"/></g>
<g><path style="opacity:0.004" fill="#aeca8b" d="M 477.5,670.5 C 478.833,671.167 478.833,671.167 477.5,670.5 Z"/></g>
<g><path style="opacity:1" fill="#abc67d" d="M 506.5,690.5 C 512.829,669.826 519.829,649.826 527.5,630.5C 528.363,629.537 529.03,629.537 529.5,630.5C 525.479,642.269 521.313,653.935 517,665.5C 514.643,673.591 511.976,681.591 509,689.5C 508.081,692.402 507.248,692.735 506.5,690.5 Z"/></g>
<g><path style="opacity:0.004" fill="#b1cc8c" d="M 461.5,674.5 C 462.833,675.167 462.833,675.167 461.5,674.5 Z"/></g>
<g><path style="opacity:0.004" fill="#a9c387" d="M 363.5,678.5 C 364.251,677.427 365.251,677.26 366.5,678C 365.552,678.483 364.552,678.649 363.5,678.5 Z"/></g>
<g><path style="opacity:0.957" fill="#a9c37a" d="M 374.5,678.5 C 370.653,678.106 366.986,677.106 363.5,675.5C 362.537,674.637 362.537,673.97 363.5,673.5C 368.366,674.511 373.032,676.011 377.5,678C 376.552,678.483 375.552,678.649 374.5,678.5 Z"/></g>
<g><path style="opacity:0.978" fill="#a9c47b" d="M 404.5,684.5 C 398.474,684.051 392.474,683.385 386.5,682.5C 384.698,681.542 382.698,680.875 380.5,680.5C 380.082,679.778 379.416,679.278 378.5,679C 379.333,678.833 380.167,678.667 381,678.5C 392.408,680.892 403.908,682.725 415.5,684C 411.848,684.499 408.182,684.665 404.5,684.5 Z"/></g>
<g><path style="opacity:0.969" fill="#abc57d" d="M 559.5,672.5 C 557.239,681.617 554.572,690.617 551.5,699.5C 550.778,699.918 550.278,700.584 550,701.5C 551.415,690.52 554.415,679.853 559,669.5C 559.483,670.448 559.649,671.448 559.5,672.5 Z"/></g>
<g><path style="opacity:0.012" fill="#aac785" d="M 386.5,682.5 C 385.833,683.167 385.833,683.167 386.5,682.5 Z"/></g>
<g><path style="opacity:0.008" fill="#adc887" d="M 387.5,683.5 C 388.833,684.167 388.833,684.167 387.5,683.5 Z"/></g>
<g><path style="opacity:0.004" fill="#adc98a" d="M 391.5,684.5 C 392.833,685.167 392.833,685.167 391.5,684.5 Z"/></g>
<g><path style="opacity:0.004" fill="#b0cb8d" d="M 399.5,686.5 C 399.897,685.475 400.563,685.308 401.5,686C 400.906,686.464 400.239,686.631 399.5,686.5 Z"/></g>
<g><path style="opacity:0.004" fill="#afc98c" d="M 406.5,687.5 C 407.251,686.427 408.251,686.26 409.5,687C 408.552,687.483 407.552,687.649 406.5,687.5 Z"/></g>
<g><path style="opacity:0.004" fill="#afc989" d="M 425.5,698.5 C 426.525,698.897 426.692,699.563 426,700.5C 425.536,699.906 425.369,699.239 425.5,698.5 Z"/></g>
<g><path style="opacity:0.004" fill="#adc787" d="M 428.5,702.5 C 427.833,703.167 427.833,703.167 428.5,702.5 Z"/></g>
<g><path style="opacity:1" fill="#aac57a" d="M 500.5,708.5 C 500.928,705.215 501.928,702.215 503.5,699.5C 504.268,698.737 504.768,697.737 505,696.5C 505.167,697.333 505.333,698.167 505.5,699C 503.868,704.229 502.035,709.396 500,714.5C 500.135,712.575 500.302,710.575 500.5,708.5 Z"/></g>
<g><path style="opacity:0.004" fill="#b0cb8b" d="M 474.5,703.5 C 475.833,704.167 475.833,704.167 474.5,703.5 Z"/></g>
<g><path style="opacity:1" fill="#aac57a" d="M 468.5,692.5 C 470.533,696.565 472.533,700.565 474.5,704.5C 475.321,708.127 476.654,711.46 478.5,714.5C 480.036,719.109 481.37,723.776 482.5,728.5C 482.649,729.552 482.483,730.552 482,731.5C 477.748,718.717 472.748,706.384 467,694.5C 466.147,692.052 466.647,691.386 468.5,692.5 Z"/></g>
<g><path style="opacity:0.008" fill="#aac587" d="M 549.5,710.5 C 550.525,710.897 550.692,711.563 550,712.5C 549.536,711.906 549.369,711.239 549.5,710.5 Z"/></g>
<g><path style="opacity:0.004" fill="#afcd8d" d="M 496.5,711.5 C 497.833,712.167 497.833,712.167 496.5,711.5 Z"/></g>
<g><path style="opacity:0.004" fill="#adc589" d="M 431.5,711.5 C 432.525,711.897 432.692,712.563 432,713.5C 431.536,712.906 431.369,712.239 431.5,711.5 Z"/></g>
<g><path style="opacity:0.979" fill="#abc67d" d="M 443.5,735.5 C 439.287,724.079 434.287,713.079 428.5,702.5C 427.111,698.056 425.444,693.723 423.5,689.5C 423.783,688.711 424.283,688.044 425,687.5C 430.912,699.563 436.245,711.897 441,724.5C 443.663,727.233 445.163,730.567 445.5,734.5C 445.561,736.721 444.895,737.054 443.5,735.5 Z"/></g>
<g><path style="opacity:0.004" fill="#b1cc8f" d="M 478.5,714.5 C 478.351,713.448 478.517,712.448 479,711.5C 479.74,712.749 479.573,713.749 478.5,714.5 Z"/></g>
<g><path style="opacity:0.004" fill="#adc888" d="M 433.5,716.5 C 434.833,717.167 434.833,717.167 433.5,716.5 Z"/></g>
<g><path style="opacity:0.004" fill="#b1cc8c" d="M 481.5,719.5 C 482.525,719.897 482.692,720.563 482,721.5C 481.536,720.906 481.369,720.239 481.5,719.5 Z"/></g>
<g><path style="opacity:0.984" fill="#a9c47a" d="M 549.5,705.5 C 548.591,712.141 546.924,718.474 544.5,724.5C 543.853,723.726 543.52,722.726 543.5,721.5C 544.322,715.191 545.988,709.191 548.5,703.5C 549.298,703.957 549.631,704.624 549.5,705.5 Z"/></g>
<g><path style="opacity:0.004" fill="#afcc8d" d="M 484.5,728.5 C 485.833,729.167 485.833,729.167 484.5,728.5 Z"/></g>
<g><path style="opacity:0.004" fill="#adc88a" d="M 439.5,730.5 C 440.833,731.167 440.833,731.167 439.5,730.5 Z"/></g>
<g><path style="opacity:0.004" fill="#b0cd8c" d="M 490.5,732.5 C 491.525,732.897 491.692,733.563 491,734.5C 490.536,733.906 490.369,733.239 490.5,732.5 Z"/></g>
<g><path style="opacity:0.004" fill="#abc787" d="M 442.5,738.5 C 443.833,739.167 443.833,739.167 442.5,738.5 Z"/></g>
<g><path style="opacity:0.008" fill="#abc488" d="M 542.5,737.5 C 543.525,737.897 543.692,738.563 543,739.5C 542.536,738.906 542.369,738.239 542.5,737.5 Z"/></g>
<g><path style="opacity:0.012" fill="#b2cd8f" d="M 488.5,739.5 C 489.833,740.167 489.833,740.167 488.5,739.5 Z"/></g>
<g><path style="opacity:0.004" fill="#acc78b" d="M 455.5,777.5 C 456.833,778.167 456.833,778.167 455.5,777.5 Z"/></g>
<g><path style="opacity:0.976" fill="#abc57c" d="M 460.5,787.5 C 459.336,783.989 458.336,780.323 457.5,776.5C 457.343,775.127 457.51,773.793 458,772.5C 460.734,777.839 462.068,783.506 462,789.5C 461.722,788.584 461.222,787.918 460.5,787.5 Z"/></g>
<g><path style="opacity:0.004" fill="#adca88" d="M 456.5,780.5 C 457.833,781.167 457.833,781.167 456.5,780.5 Z"/></g>
<g><path style="opacity:0.004" fill="#abc788" d="M 458.5,788.5 C 459.833,789.167 459.833,789.167 458.5,788.5 Z"/></g>
<g><path style="opacity:0.008" fill="#aac485" d="M 531.5,790.5 C 532.833,791.167 532.833,791.167 531.5,790.5 Z"/></g>
<g><path style="opacity:0.004" fill="#acc787" d="M 459.5,792.5 C 460.833,793.167 460.833,793.167 459.5,792.5 Z"/></g>
<g><path style="opacity:0.997" fill="#a9c37b" d="M 533.5,770.5 C 532.117,781.406 530.117,792.073 527.5,802.5C 527.768,800.901 527.434,799.568 526.5,798.5C 528.288,789.365 529.955,780.199 531.5,771C 532.059,766.723 532.726,766.556 533.5,770.5 Z"/></g>
<g><path style="opacity:0.004" fill="#abc789" d="M 460.5,797.5 C 461.833,798.167 461.833,798.167 460.5,797.5 Z"/></g>
<g><path style="opacity:0.992" fill="#acc67e" d="M 464.5,804.5 C 463.343,801.727 462.676,798.727 462.5,795.5C 462.343,794.127 462.51,792.793 463,791.5C 464.319,795.108 465.486,798.775 466.5,802.5C 466.253,803.713 465.586,804.38 464.5,804.5 Z"/></g>
<g><path style="opacity:0.979" fill="#a7c273" d="M 468.5,823.5 C 467.833,821.833 467.167,820.167 466.5,818.5C 466.5,817.833 466.5,817.167 466.5,816.5C 466.336,813.813 466.503,811.146 467,808.5C 468.05,813.448 468.55,818.448 468.5,823.5 Z"/></g>
<g><path style="opacity:0.012" fill="#a6bf88" d="M 526.5,814.5 C 527.833,815.167 527.833,815.167 526.5,814.5 Z"/></g>
<g><path style="opacity:0.004" fill="#abc588" d="M 526.5,817.5 C 527.833,818.167 527.833,818.167 526.5,817.5 Z"/></g>
<g><path style="opacity:0.004" fill="#afc88b" d="M 464.5,819.5 C 465.525,819.897 465.692,820.563 465,821.5C 464.536,820.906 464.369,820.239 464.5,819.5 Z"/></g>
<g><path style="opacity:0.996" fill="#aac47d" d="M 526.5,798.5 C 527.434,799.568 527.768,800.901 527.5,802.5C 527.167,806.5 526.833,810.5 526.5,814.5C 523.736,829.006 521.402,843.673 519.5,858.5C 518.352,854.019 518.185,849.352 519,844.5C 521.101,829.085 523.601,813.751 526.5,798.5 Z"/></g>
<g><path style="opacity:0.008" fill="#a7c186" d="M 525.5,822.5 C 526.833,823.167 526.833,823.167 525.5,822.5 Z"/></g>
<g><path style="opacity:0.004" fill="#acc887" d="M 465.5,827.5 C 466.833,828.167 466.833,828.167 465.5,827.5 Z"/></g>
<g><path style="opacity:0.008" fill="#aac889" d="M 465.5,829.5 C 466.833,830.167 466.833,830.167 465.5,829.5 Z"/></g>
<g><path style="opacity:0.363" fill="#b6cf93" d="M 466.5,818.5 C 467.167,820.167 467.833,821.833 468.5,823.5C 468.826,831.684 468.492,839.684 467.5,847.5C 467.62,837.812 467.287,828.146 466.5,818.5 Z"/></g>
<g><path style="opacity:0.999" fill="#a2bc6b" d="M 468.5,823.5 C 469.865,834.704 469.698,846.037 468,857.5C 467.503,855.19 467.337,852.857 467.5,850.5C 467.5,849.5 467.5,848.5 467.5,847.5C 468.492,839.684 468.826,831.684 468.5,823.5 Z"/></g>
<g><path style="opacity:0.004" fill="#a9c687" d="M 463.5,836.5 C 464.833,837.167 464.833,837.167 463.5,836.5 Z"/></g>
<g><path style="opacity:0.004" fill="#a9c685" d="M 465.5,843.5 C 466.833,844.167 466.833,844.167 465.5,843.5 Z"/></g>
<g><path style="opacity:0.004" fill="#aac58a" d="M 463.5,862.5 C 464.833,863.167 464.833,863.167 463.5,862.5 Z"/></g>
<g><path style="opacity:1" fill="#a6c174" d="M 464.5,871.5 C 464.5,870.833 464.5,870.167 464.5,869.5C 466.059,866.132 466.892,862.465 467,858.5C 467.487,865.275 466.82,871.942 465,878.5C 464.503,876.19 464.337,873.857 464.5,871.5 Z"/></g>
<g><path style="opacity:0.997" fill="#a4bf6e" d="M 516.5,884.5 C 516.5,884.833 516.5,885.167 516.5,885.5C 515.778,885.918 515.278,886.584 515,887.5C 514.833,886.5 514.667,885.5 514.5,884.5C 515.819,872.563 516.485,872.563 516.5,884.5 Z"/></g>
<g><path style="opacity:0.961" fill="#a9c37b" d="M 508.5,901.5 C 506.5,902.833 504.5,904.167 502.5,905.5C 491.119,908.727 480.119,907.727 469.5,902.5C 466.483,899.802 464.483,896.469 463.5,892.5C 463.334,888.154 463.501,883.821 464,879.5C 463.532,886.455 465.199,892.788 469,898.5C 469.333,897.833 469.667,897.167 470,896.5C 470.242,898.138 471.075,899.638 472.5,901C 478.1,903.249 483.933,904.416 490,904.5C 496.74,905.461 502.74,903.795 508,899.5C 508.464,900.094 508.631,900.761 508.5,901.5 Z"/></g>
<g><path style="opacity:0.004" fill="#a0bb7e" d="M 469.5,902.5 C 468.833,903.167 468.833,903.167 469.5,902.5 Z"/></g>
<g><path style="opacity:0.004" fill="#a0ba7c" d="M 502.5,905.5 C 503.833,906.167 503.833,906.167 502.5,905.5 Z"/></g>
<g><path style="opacity:0.014" fill="#a4be81" d="M 487.5,909.5 C 487.897,908.475 488.563,908.308 489.5,909C 488.906,909.464 488.239,909.631 487.5,909.5 Z"/></g>
<g><path style="opacity:0.004" fill="#a6bf81" d="M 490.5,908.5 C 491.833,909.167 491.833,909.167 490.5,908.5 Z"/></g>
<g><path style="opacity:0.008" fill="#9fba80" d="M 495.5,908.5 C 496.833,909.167 496.833,909.167 495.5,908.5 Z"/></g>
<g><path style="opacity:0.004" fill="#60714c" d="M 307.5,933.5 C 308.833,934.167 308.833,934.167 307.5,933.5 Z"/></g>
</svg>
